<?xml version="1.0" encoding="UTF-8"?>
<svg version="1.1" xmlns="http://www.w3.org/2000/svg" width="16" height="16">
<path d="M0 0 C5.28 0 10.56 0 16 0 C16 5.28 16 10.56 16 16 C10.72 16 5.44 16 0 16 C0 10.72 0 5.44 0 0 Z " fill="#070400" transform="translate(0,0)"/>
<path d="M0 0 C1.37478516 0.01740234 1.37478516 0.01740234 2.77734375 0.03515625 C3.69644531 0.04417969 4.61554687 0.05320313 5.5625 0.0625 C6.27277344 0.07410156 6.98304687 0.08570313 7.71484375 0.09765625 C7.76931422 1.51388841 7.80784883 2.93073816 7.83984375 4.34765625 C7.86304688 5.1365625 7.88625 5.92546875 7.91015625 6.73828125 C7.69768155 9.30497566 7.0013848 10.88926295 5.71484375 13.09765625 C3.23984375 12.10765625 3.23984375 12.10765625 0.71484375 11.09765625 C0.38484375 11.75765625 0.05484375 12.41765625 -0.28515625 13.09765625 C-1.27515625 12.76765625 -2.26515625 12.43765625 -3.28515625 12.09765625 C-3.31202904 10.28523573 -3.3314934 8.47270392 -3.34765625 6.66015625 C-3.35925781 5.65082031 -3.37085938 4.64148438 -3.3828125 3.6015625 C-3.25661147 0.36576812 -3.22349358 0.13775614 0 0 Z " fill="#1B0F00" transform="translate(6.28515625,-0.09765625)"/>
<path d="M0 0 C1.32 0.66 2.64 1.32 4 2 C4 3.32 4 4.64 4 6 C4.66 6.33 5.32 6.66 6 7 C5.67 8.32 5.34 9.64 5 11 C4.34 10.67 3.68 10.34 3 10 C3 9.34 3 8.68 3 8 C1.68 7.67 0.36 7.34 -1 7 C-1.625 4.625 -1.625 4.625 -2 2 C-1.34 1.34 -0.68 0.68 0 0 Z " fill="#664614" transform="translate(7,2)"/>
<path d="M0 0 C1.32 0.66 2.64 1.32 4 2 C3.01 3.485 3.01 3.485 2 5 C0.68 5 -0.64 5 -2 5 C-1.125 1.125 -1.125 1.125 0 0 Z " fill="#735316" transform="translate(7,2)"/>
<path d="M0 0 C1.65 1.65 3.3 3.3 5 5 C4.01 5.495 4.01 5.495 3 6 C2.67 6.66 2.34 7.32 2 8 C1.34 7.67 0.68 7.34 0 7 C0 4.69 0 2.38 0 0 Z " fill="#3F2909" transform="translate(4,5)"/>
</svg>
